<mxfile host="app.diagrams.net" agent="Mozilla/5.0 (Macintosh; Intel Mac OS X 10_15_7) AppleWebKit/537.36 (KHTML, like Gecko) Chrome/127.0.0.0 Safari/537.36" version="24.8.4">
  <diagram name="Page-1" id="2YBvvXClWsGukQMizWep">
    <mxGraphModel grid="1" page="1" gridSize="10" guides="1" tooltips="1" connect="1" arrows="1" fold="1" pageScale="1" pageWidth="850" pageHeight="1100" math="0" shadow="0">
      <root>
        <mxCell id="0" />
        <mxCell id="1" parent="0" />
        <mxCell id="aM9ryv3xv72pqoxQDRHE-1" value=":&lt;span style=&quot;font-family: &amp;quot;Helvetica Neue&amp;quot;; font-size: 13px; text-align: start; background-color: initial;&quot;&gt;&amp;nbsp;UserCmdApi&lt;/span&gt;" style="shape=umlLifeline;perimeter=lifelinePerimeter;whiteSpace=wrap;html=1;container=0;dropTarget=0;collapsible=0;recursiveResize=0;outlineConnect=0;portConstraint=eastwest;newEdgeStyle={&quot;edgeStyle&quot;:&quot;elbowEdgeStyle&quot;,&quot;elbow&quot;:&quot;vertical&quot;,&quot;curved&quot;:0,&quot;rounded&quot;:0};" vertex="1" parent="1">
          <mxGeometry x="40" y="40" width="100" height="3350" as="geometry" />
        </mxCell>
        <mxCell id="aM9ryv3xv72pqoxQDRHE-2" value="" style="html=1;points=[];perimeter=orthogonalPerimeter;outlineConnect=0;targetShapes=umlLifeline;portConstraint=eastwest;newEdgeStyle={&quot;edgeStyle&quot;:&quot;elbowEdgeStyle&quot;,&quot;elbow&quot;:&quot;vertical&quot;,&quot;curved&quot;:0,&quot;rounded&quot;:0};" vertex="1" parent="aM9ryv3xv72pqoxQDRHE-1">
          <mxGeometry x="45" y="70" width="10" height="3280" as="geometry" />
        </mxCell>
        <mxCell id="aM9ryv3xv72pqoxQDRHE-3" value="/api/v1/command/users/sign-up  " style="verticalAlign=bottom;startArrow=oval;endArrow=block;startSize=8;edgeStyle=elbowEdgeStyle;elbow=vertical;curved=0;rounded=0;align=center;" edge="1" parent="aM9ryv3xv72pqoxQDRHE-1" target="aM9ryv3xv72pqoxQDRHE-2">
          <mxGeometry x="-0.1111" relative="1" as="geometry">
            <mxPoint x="-180" y="70" as="sourcePoint" />
            <Array as="points">
              <mxPoint x="-170" y="70" />
            </Array>
            <mxPoint as="offset" />
          </mxGeometry>
        </mxCell>
        <mxCell id="-DpK-WTI--ZN_Ye6T3L2-60" value="" style="html=1;points=[[0,0,0,0,5],[0,1,0,0,-5],[1,0,0,0,5],[1,1,0,0,-5]];perimeter=orthogonalPerimeter;outlineConnect=0;targetShapes=umlLifeline;portConstraint=eastwest;newEdgeStyle={&quot;curved&quot;:0,&quot;rounded&quot;:0};" vertex="1" parent="aM9ryv3xv72pqoxQDRHE-1">
          <mxGeometry x="50" y="231" width="10" height="129" as="geometry" />
        </mxCell>
        <mxCell id="-DpK-WTI--ZN_Ye6T3L2-61" value="if user exists" style="html=1;align=left;spacingLeft=2;endArrow=block;rounded=0;edgeStyle=orthogonalEdgeStyle;curved=0;rounded=0;" edge="1" parent="aM9ryv3xv72pqoxQDRHE-1" target="-DpK-WTI--ZN_Ye6T3L2-60">
          <mxGeometry relative="1" as="geometry">
            <mxPoint x="55" y="211" as="sourcePoint" />
            <Array as="points">
              <mxPoint x="85" y="241" />
            </Array>
          </mxGeometry>
        </mxCell>
        <mxCell id="-DpK-WTI--ZN_Ye6T3L2-62" value="" style="html=1;points=[[0,0,0,0,5],[0,1,0,0,-5],[1,0,0,0,5],[1,1,0,0,-5]];perimeter=orthogonalPerimeter;outlineConnect=0;targetShapes=umlLifeline;portConstraint=eastwest;newEdgeStyle={&quot;curved&quot;:0,&quot;rounded&quot;:0};" vertex="1" parent="aM9ryv3xv72pqoxQDRHE-1">
          <mxGeometry x="50" y="140" width="10" height="50" as="geometry" />
        </mxCell>
        <mxCell id="-DpK-WTI--ZN_Ye6T3L2-77" value="" style="html=1;points=[[0,0,0,0,5],[0,1,0,0,-5],[1,0,0,0,5],[1,1,0,0,-5]];perimeter=orthogonalPerimeter;outlineConnect=0;targetShapes=umlLifeline;portConstraint=eastwest;newEdgeStyle={&quot;curved&quot;:0,&quot;rounded&quot;:0};" vertex="1" parent="aM9ryv3xv72pqoxQDRHE-1">
          <mxGeometry x="50" y="390" width="10" height="2890" as="geometry" />
        </mxCell>
        <mxCell id="-DpK-WTI--ZN_Ye6T3L2-79" value="" style="html=1;points=[[0,0,0,0,5],[0,1,0,0,-5],[1,0,0,0,5],[1,1,0,0,-5]];perimeter=orthogonalPerimeter;outlineConnect=0;targetShapes=umlLifeline;portConstraint=eastwest;newEdgeStyle={&quot;curved&quot;:0,&quot;rounded&quot;:0};" vertex="1" parent="aM9ryv3xv72pqoxQDRHE-1">
          <mxGeometry x="55" y="720" width="10" height="120" as="geometry" />
        </mxCell>
        <mxCell id="-DpK-WTI--ZN_Ye6T3L2-80" value="if exists errors in command" style="html=1;align=left;spacingLeft=2;endArrow=block;rounded=0;edgeStyle=orthogonalEdgeStyle;curved=0;rounded=0;" edge="1" parent="aM9ryv3xv72pqoxQDRHE-1" target="-DpK-WTI--ZN_Ye6T3L2-79">
          <mxGeometry relative="1" as="geometry">
            <mxPoint x="60" y="700" as="sourcePoint" />
            <Array as="points">
              <mxPoint x="85" y="730" />
            </Array>
          </mxGeometry>
        </mxCell>
        <mxCell id="-DpK-WTI--ZN_Ye6T3L2-195" value="" style="html=1;points=[[0,0,0,0,5],[0,1,0,0,-5],[1,0,0,0,5],[1,1,0,0,-5]];perimeter=orthogonalPerimeter;outlineConnect=0;targetShapes=umlLifeline;portConstraint=eastwest;newEdgeStyle={&quot;curved&quot;:0,&quot;rounded&quot;:0};" vertex="1" parent="aM9ryv3xv72pqoxQDRHE-1">
          <mxGeometry x="52" y="101" width="10" height="25" as="geometry" />
        </mxCell>
        <mxCell id="-DpK-WTI--ZN_Ye6T3L2-196" value="if exists input format&amp;nbsp;&lt;div&gt;errors in email or password&lt;/div&gt;" style="html=1;align=left;spacingLeft=2;endArrow=block;rounded=0;edgeStyle=orthogonalEdgeStyle;curved=0;rounded=0;" edge="1" parent="aM9ryv3xv72pqoxQDRHE-1" target="-DpK-WTI--ZN_Ye6T3L2-195">
          <mxGeometry relative="1" as="geometry">
            <mxPoint x="57" y="81" as="sourcePoint" />
            <Array as="points">
              <mxPoint x="87" y="111" />
            </Array>
          </mxGeometry>
        </mxCell>
        <mxCell id="aM9ryv3xv72pqoxQDRHE-5" value=":ResponseFactory" style="shape=umlLifeline;perimeter=lifelinePerimeter;whiteSpace=wrap;html=1;container=0;dropTarget=0;collapsible=0;recursiveResize=0;outlineConnect=0;portConstraint=eastwest;newEdgeStyle={&quot;edgeStyle&quot;:&quot;elbowEdgeStyle&quot;,&quot;elbow&quot;:&quot;vertical&quot;,&quot;curved&quot;:0,&quot;rounded&quot;:0};" vertex="1" parent="1">
          <mxGeometry x="230" y="40" width="130" height="3170" as="geometry" />
        </mxCell>
        <mxCell id="aM9ryv3xv72pqoxQDRHE-6" value="" style="html=1;points=[];perimeter=orthogonalPerimeter;outlineConnect=0;targetShapes=umlLifeline;portConstraint=eastwest;newEdgeStyle={&quot;edgeStyle&quot;:&quot;elbowEdgeStyle&quot;,&quot;elbow&quot;:&quot;vertical&quot;,&quot;curved&quot;:0,&quot;rounded&quot;:0};" vertex="1" parent="aM9ryv3xv72pqoxQDRHE-5">
          <mxGeometry x="60" y="70" width="10" height="3100" as="geometry" />
        </mxCell>
        <mxCell id="-DpK-WTI--ZN_Ye6T3L2-63" value="" style="html=1;points=[[0,0,0,0,5],[0,1,0,0,-5],[1,0,0,0,5],[1,1,0,0,-5]];perimeter=orthogonalPerimeter;outlineConnect=0;targetShapes=umlLifeline;portConstraint=eastwest;newEdgeStyle={&quot;curved&quot;:0,&quot;rounded&quot;:0};" vertex="1" parent="aM9ryv3xv72pqoxQDRHE-5">
          <mxGeometry x="66" y="260" width="10" height="75" as="geometry" />
        </mxCell>
        <mxCell id="-DpK-WTI--ZN_Ye6T3L2-122" value="" style="html=1;points=[[0,0,0,0,5],[0,1,0,0,-5],[1,0,0,0,5],[1,1,0,0,-5]];perimeter=orthogonalPerimeter;outlineConnect=0;targetShapes=umlLifeline;portConstraint=eastwest;newEdgeStyle={&quot;curved&quot;:0,&quot;rounded&quot;:0};" vertex="1" parent="aM9ryv3xv72pqoxQDRHE-5">
          <mxGeometry x="66" y="1520" width="10" height="75" as="geometry" />
        </mxCell>
        <mxCell id="-DpK-WTI--ZN_Ye6T3L2-143" value="" style="html=1;points=[[0,0,0,0,5],[0,1,0,0,-5],[1,0,0,0,5],[1,1,0,0,-5]];perimeter=orthogonalPerimeter;outlineConnect=0;targetShapes=umlLifeline;portConstraint=eastwest;newEdgeStyle={&quot;curved&quot;:0,&quot;rounded&quot;:0};" vertex="1" parent="aM9ryv3xv72pqoxQDRHE-5">
          <mxGeometry x="65" y="1996" width="10" height="75" as="geometry" />
        </mxCell>
        <mxCell id="aM9ryv3xv72pqoxQDRHE-7" value="get user by email" style="verticalAlign=bottom;endArrow=block;edgeStyle=elbowEdgeStyle;elbow=vertical;curved=0;rounded=0;spacing=2;labelBorderColor=none;fontSize=11;arcSize=20;align=center;spacingTop=1;" edge="1" parent="1">
          <mxGeometry x="-0.0239" relative="1" as="geometry">
            <mxPoint x="100" y="181" as="sourcePoint" />
            <Array as="points">
              <mxPoint x="180" y="180" />
            </Array>
            <mxPoint x="1150" y="180" as="targetPoint" />
            <mxPoint as="offset" />
          </mxGeometry>
        </mxCell>
        <mxCell id="-DpK-WTI--ZN_Ye6T3L2-1" value=":&lt;span style=&quot;font-family: &amp;quot;Helvetica Neue&amp;quot;; font-size: 13px; text-align: start; background-color: initial;&quot;&gt;&amp;nbsp;CommandHandler&lt;/span&gt;" style="shape=umlLifeline;perimeter=lifelinePerimeter;whiteSpace=wrap;html=1;container=0;dropTarget=0;collapsible=0;recursiveResize=0;outlineConnect=0;portConstraint=eastwest;newEdgeStyle={&quot;edgeStyle&quot;:&quot;elbowEdgeStyle&quot;,&quot;elbow&quot;:&quot;vertical&quot;,&quot;curved&quot;:0,&quot;rounded&quot;:0};" vertex="1" parent="1">
          <mxGeometry x="440" y="40" width="130" height="2900" as="geometry" />
        </mxCell>
        <mxCell id="-DpK-WTI--ZN_Ye6T3L2-2" value="" style="html=1;points=[];perimeter=orthogonalPerimeter;outlineConnect=0;targetShapes=umlLifeline;portConstraint=eastwest;newEdgeStyle={&quot;edgeStyle&quot;:&quot;elbowEdgeStyle&quot;,&quot;elbow&quot;:&quot;vertical&quot;,&quot;curved&quot;:0,&quot;rounded&quot;:0};" vertex="1" parent="-DpK-WTI--ZN_Ye6T3L2-1">
          <mxGeometry x="60" y="70" width="10" height="2830" as="geometry" />
        </mxCell>
        <mxCell id="-DpK-WTI--ZN_Ye6T3L2-6" value="" style="html=1;points=[[0,0,0,0,5],[0,1,0,0,-5],[1,0,0,0,5],[1,1,0,0,-5]];perimeter=orthogonalPerimeter;outlineConnect=0;targetShapes=umlLifeline;portConstraint=eastwest;newEdgeStyle={&quot;curved&quot;:0,&quot;rounded&quot;:0};" vertex="1" parent="-DpK-WTI--ZN_Ye6T3L2-1">
          <mxGeometry x="65" y="399" width="10" height="1891" as="geometry" />
        </mxCell>
        <mxCell id="-DpK-WTI--ZN_Ye6T3L2-9" value=":&lt;span style=&quot;font-family: &amp;quot;Helvetica Neue&amp;quot;; font-size: 13px; text-align: start; background-color: initial;&quot;&gt;&amp;nbsp;&lt;/span&gt;&lt;span style=&quot;font-family: &amp;quot;Helvetica Neue&amp;quot;; font-size: 13px; text-align: start; background-color: initial;&quot;&gt;UserAggregate&lt;/span&gt;" style="shape=umlLifeline;perimeter=lifelinePerimeter;whiteSpace=wrap;html=1;container=0;dropTarget=0;collapsible=0;recursiveResize=0;outlineConnect=0;portConstraint=eastwest;newEdgeStyle={&quot;edgeStyle&quot;:&quot;elbowEdgeStyle&quot;,&quot;elbow&quot;:&quot;vertical&quot;,&quot;curved&quot;:0,&quot;rounded&quot;:0};" vertex="1" parent="1">
          <mxGeometry x="660" y="40" width="130" height="2910" as="geometry" />
        </mxCell>
        <mxCell id="-DpK-WTI--ZN_Ye6T3L2-10" value="" style="html=1;points=[];perimeter=orthogonalPerimeter;outlineConnect=0;targetShapes=umlLifeline;portConstraint=eastwest;newEdgeStyle={&quot;edgeStyle&quot;:&quot;elbowEdgeStyle&quot;,&quot;elbow&quot;:&quot;vertical&quot;,&quot;curved&quot;:0,&quot;rounded&quot;:0};" vertex="1" parent="-DpK-WTI--ZN_Ye6T3L2-9">
          <mxGeometry x="60" y="70" width="10" height="2840" as="geometry" />
        </mxCell>
        <mxCell id="-DpK-WTI--ZN_Ye6T3L2-11" value="" style="html=1;points=[[0,0,0,0,5],[0,1,0,0,-5],[1,0,0,0,5],[1,1,0,0,-5]];perimeter=orthogonalPerimeter;outlineConnect=0;targetShapes=umlLifeline;portConstraint=eastwest;newEdgeStyle={&quot;curved&quot;:0,&quot;rounded&quot;:0};" vertex="1" parent="-DpK-WTI--ZN_Ye6T3L2-9">
          <mxGeometry x="66" y="409" width="10" height="1871" as="geometry" />
        </mxCell>
        <mxCell id="-DpK-WTI--ZN_Ye6T3L2-13" value="return create user command with errors" style="html=1;verticalAlign=bottom;endArrow=open;dashed=1;endSize=8;curved=0;rounded=0;exitX=0;exitY=1;exitDx=0;exitDy=-5;" edge="1" parent="-DpK-WTI--ZN_Ye6T3L2-9">
          <mxGeometry relative="1" as="geometry">
            <mxPoint x="-140" y="650" as="targetPoint" />
            <mxPoint x="56" y="649.9999999999998" as="sourcePoint" />
          </mxGeometry>
        </mxCell>
        <mxCell id="-DpK-WTI--ZN_Ye6T3L2-75" value="" style="html=1;points=[[0,0,0,0,5],[0,1,0,0,-5],[1,0,0,0,5],[1,1,0,0,-5]];perimeter=orthogonalPerimeter;outlineConnect=0;targetShapes=umlLifeline;portConstraint=eastwest;newEdgeStyle={&quot;curved&quot;:0,&quot;rounded&quot;:0};" vertex="1" parent="-DpK-WTI--ZN_Ye6T3L2-9">
          <mxGeometry x="72" y="610" width="10" height="50" as="geometry" />
        </mxCell>
        <mxCell id="-DpK-WTI--ZN_Ye6T3L2-76" value="if exists exception set errors&amp;nbsp;&lt;div&gt;in command&lt;/div&gt;" style="html=1;align=left;spacingLeft=2;endArrow=block;rounded=0;edgeStyle=orthogonalEdgeStyle;curved=0;rounded=0;" edge="1" parent="-DpK-WTI--ZN_Ye6T3L2-9" target="-DpK-WTI--ZN_Ye6T3L2-75">
          <mxGeometry relative="1" as="geometry">
            <mxPoint x="77" y="590" as="sourcePoint" />
            <Array as="points">
              <mxPoint x="100" y="620" />
            </Array>
          </mxGeometry>
        </mxCell>
        <mxCell id="-DpK-WTI--ZN_Ye6T3L2-7" value="set a create user command" style="html=1;verticalAlign=bottom;endArrow=block;curved=0;rounded=0;" edge="1" parent="1">
          <mxGeometry x="0.02" relative="1" as="geometry">
            <mxPoint x="100" y="438" as="sourcePoint" />
            <mxPoint x="499" y="438" as="targetPoint" />
            <mxPoint as="offset" />
          </mxGeometry>
        </mxCell>
        <mxCell id="-DpK-WTI--ZN_Ye6T3L2-12" value="handle and send create user command" style="html=1;verticalAlign=bottom;endArrow=block;curved=0;rounded=0;" edge="1" parent="1">
          <mxGeometry x="0.0035" relative="1" as="geometry">
            <mxPoint x="515" y="449" as="sourcePoint" />
            <mxPoint x="720" y="449" as="targetPoint" />
            <mxPoint as="offset" />
          </mxGeometry>
        </mxCell>
        <mxCell id="-DpK-WTI--ZN_Ye6T3L2-15" value=":&lt;span style=&quot;font-family: &amp;quot;Helvetica Neue&amp;quot;; font-size: 13px; text-align: start; background-color: initial;&quot;&gt;&amp;nbsp;&lt;/span&gt;&lt;span style=&quot;font-family: &amp;quot;Helvetica Neue&amp;quot;; font-size: 13px; text-align: start; background-color: initial;&quot;&gt;UserRepository&lt;/span&gt;" style="shape=umlLifeline;perimeter=lifelinePerimeter;whiteSpace=wrap;html=1;container=0;dropTarget=0;collapsible=0;recursiveResize=0;outlineConnect=0;portConstraint=eastwest;newEdgeStyle={&quot;edgeStyle&quot;:&quot;elbowEdgeStyle&quot;,&quot;elbow&quot;:&quot;vertical&quot;,&quot;curved&quot;:0,&quot;rounded&quot;:0};" vertex="1" parent="1">
          <mxGeometry x="880" y="40" width="130" height="1920" as="geometry" />
        </mxCell>
        <mxCell id="-DpK-WTI--ZN_Ye6T3L2-16" value="" style="html=1;points=[];perimeter=orthogonalPerimeter;outlineConnect=0;targetShapes=umlLifeline;portConstraint=eastwest;newEdgeStyle={&quot;edgeStyle&quot;:&quot;elbowEdgeStyle&quot;,&quot;elbow&quot;:&quot;vertical&quot;,&quot;curved&quot;:0,&quot;rounded&quot;:0};" vertex="1" parent="-DpK-WTI--ZN_Ye6T3L2-15">
          <mxGeometry x="60" y="70" width="10" height="1850" as="geometry" />
        </mxCell>
        <mxCell id="-DpK-WTI--ZN_Ye6T3L2-17" value="" style="html=1;points=[[0,0,0,0,5],[0,1,0,0,-5],[1,0,0,0,5],[1,1,0,0,-5]];perimeter=orthogonalPerimeter;outlineConnect=0;targetShapes=umlLifeline;portConstraint=eastwest;newEdgeStyle={&quot;curved&quot;:0,&quot;rounded&quot;:0};" vertex="1" parent="-DpK-WTI--ZN_Ye6T3L2-15">
          <mxGeometry x="65" y="420" width="10" height="130" as="geometry" />
        </mxCell>
        <mxCell id="-DpK-WTI--ZN_Ye6T3L2-89" value="generate uuid" style="html=1;align=left;spacingLeft=2;endArrow=block;rounded=0;edgeStyle=orthogonalEdgeStyle;curved=0;rounded=0;" edge="1" parent="-DpK-WTI--ZN_Ye6T3L2-15" target="-DpK-WTI--ZN_Ye6T3L2-88">
          <mxGeometry relative="1" as="geometry">
            <mxPoint x="75" y="914" as="sourcePoint" />
            <Array as="points">
              <mxPoint x="105" y="944" />
            </Array>
          </mxGeometry>
        </mxCell>
        <mxCell id="-DpK-WTI--ZN_Ye6T3L2-88" value="" style="html=1;points=[[0,0,0,0,5],[0,1,0,0,-5],[1,0,0,0,5],[1,1,0,0,-5]];perimeter=orthogonalPerimeter;outlineConnect=0;targetShapes=umlLifeline;portConstraint=eastwest;newEdgeStyle={&quot;curved&quot;:0,&quot;rounded&quot;:0};" vertex="1" parent="-DpK-WTI--ZN_Ye6T3L2-15">
          <mxGeometry x="71" y="934" width="10" height="40" as="geometry" />
        </mxCell>
        <mxCell id="-DpK-WTI--ZN_Ye6T3L2-130" value="" style="html=1;points=[[0,0,0,0,5],[0,1,0,0,-5],[1,0,0,0,5],[1,1,0,0,-5]];perimeter=orthogonalPerimeter;outlineConnect=0;targetShapes=umlLifeline;portConstraint=eastwest;newEdgeStyle={&quot;curved&quot;:0,&quot;rounded&quot;:0};" vertex="1" parent="-DpK-WTI--ZN_Ye6T3L2-15">
          <mxGeometry x="65" y="1660" width="10" height="140" as="geometry" />
        </mxCell>
        <mxCell id="-DpK-WTI--ZN_Ye6T3L2-19" value="get user identifier" style="html=1;verticalAlign=bottom;endArrow=block;curved=0;rounded=0;entryX=0;entryY=0;entryDx=0;entryDy=5;" edge="1" parent="1">
          <mxGeometry relative="1" as="geometry">
            <mxPoint x="740" y="458" as="sourcePoint" />
            <mxPoint x="940" y="458" as="targetPoint" />
            <mxPoint as="offset" />
          </mxGeometry>
        </mxCell>
        <mxCell id="-DpK-WTI--ZN_Ye6T3L2-20" value=":&lt;span style=&quot;font-family: &amp;quot;Helvetica Neue&amp;quot;; font-size: 13px; text-align: start; background-color: initial;&quot;&gt;&amp;nbsp;UserGateway&lt;/span&gt;" style="shape=umlLifeline;perimeter=lifelinePerimeter;whiteSpace=wrap;html=1;container=0;dropTarget=0;collapsible=0;recursiveResize=0;outlineConnect=0;portConstraint=eastwest;newEdgeStyle={&quot;edgeStyle&quot;:&quot;elbowEdgeStyle&quot;,&quot;elbow&quot;:&quot;vertical&quot;,&quot;curved&quot;:0,&quot;rounded&quot;:0};" vertex="1" parent="1">
          <mxGeometry x="1090" y="40" width="130" height="2900" as="geometry" />
        </mxCell>
        <mxCell id="-DpK-WTI--ZN_Ye6T3L2-21" value="" style="html=1;points=[];perimeter=orthogonalPerimeter;outlineConnect=0;targetShapes=umlLifeline;portConstraint=eastwest;newEdgeStyle={&quot;edgeStyle&quot;:&quot;elbowEdgeStyle&quot;,&quot;elbow&quot;:&quot;vertical&quot;,&quot;curved&quot;:0,&quot;rounded&quot;:0};" vertex="1" parent="-DpK-WTI--ZN_Ye6T3L2-20">
          <mxGeometry x="60" y="70" width="10" height="2820" as="geometry" />
        </mxCell>
        <mxCell id="-DpK-WTI--ZN_Ye6T3L2-22" value="" style="html=1;points=[[0,0,0,0,5],[0,1,0,0,-5],[1,0,0,0,5],[1,1,0,0,-5]];perimeter=orthogonalPerimeter;outlineConnect=0;targetShapes=umlLifeline;portConstraint=eastwest;newEdgeStyle={&quot;curved&quot;:0,&quot;rounded&quot;:0};" vertex="1" parent="-DpK-WTI--ZN_Ye6T3L2-20">
          <mxGeometry x="65" y="140" width="10" height="50" as="geometry" />
        </mxCell>
        <mxCell id="-DpK-WTI--ZN_Ye6T3L2-147" value="º" style="html=1;points=[[0,0,0,0,5],[0,1,0,0,-5],[1,0,0,0,5],[1,1,0,0,-5]];perimeter=orthogonalPerimeter;outlineConnect=0;targetShapes=umlLifeline;portConstraint=eastwest;newEdgeStyle={&quot;curved&quot;:0,&quot;rounded&quot;:0};" vertex="1" parent="-DpK-WTI--ZN_Ye6T3L2-20">
          <mxGeometry x="65" y="2368" width="10" height="402" as="geometry" />
        </mxCell>
        <mxCell id="-DpK-WTI--ZN_Ye6T3L2-148" value="create auth token" style="html=1;verticalAlign=bottom;endArrow=block;curved=0;rounded=0;entryX=0;entryY=0;entryDx=0;entryDy=5;" edge="1" parent="-DpK-WTI--ZN_Ye6T3L2-20">
          <mxGeometry x="0.0023" relative="1" as="geometry">
            <mxPoint x="76" y="2378" as="sourcePoint" />
            <mxPoint x="280" y="2378" as="targetPoint" />
            <mxPoint as="offset" />
          </mxGeometry>
        </mxCell>
        <mxCell id="-DpK-WTI--ZN_Ye6T3L2-25" value=":&lt;span style=&quot;font-family: &amp;quot;Helvetica Neue&amp;quot;; font-size: 13px; text-align: start; background-color: initial;&quot;&gt;&amp;nbsp;UserQueryService&lt;/span&gt;" style="shape=umlLifeline;perimeter=lifelinePerimeter;whiteSpace=wrap;html=1;container=0;dropTarget=0;collapsible=0;recursiveResize=0;outlineConnect=0;portConstraint=eastwest;newEdgeStyle={&quot;edgeStyle&quot;:&quot;elbowEdgeStyle&quot;,&quot;elbow&quot;:&quot;vertical&quot;,&quot;curved&quot;:0,&quot;rounded&quot;:0};" vertex="1" parent="1">
          <mxGeometry x="1310" y="40" width="130" height="2880" as="geometry" />
        </mxCell>
        <mxCell id="-DpK-WTI--ZN_Ye6T3L2-26" value="" style="html=1;points=[];perimeter=orthogonalPerimeter;outlineConnect=0;targetShapes=umlLifeline;portConstraint=eastwest;newEdgeStyle={&quot;edgeStyle&quot;:&quot;elbowEdgeStyle&quot;,&quot;elbow&quot;:&quot;vertical&quot;,&quot;curved&quot;:0,&quot;rounded&quot;:0};" vertex="1" parent="-DpK-WTI--ZN_Ye6T3L2-25">
          <mxGeometry x="60" y="80" width="10" height="2800" as="geometry" />
        </mxCell>
        <mxCell id="-DpK-WTI--ZN_Ye6T3L2-27" value="" style="html=1;points=[[0,0,0,0,5],[0,1,0,0,-5],[1,0,0,0,5],[1,1,0,0,-5]];perimeter=orthogonalPerimeter;outlineConnect=0;targetShapes=umlLifeline;portConstraint=eastwest;newEdgeStyle={&quot;curved&quot;:0,&quot;rounded&quot;:0};" vertex="1" parent="-DpK-WTI--ZN_Ye6T3L2-25">
          <mxGeometry x="65" y="144" width="10" height="40" as="geometry" />
        </mxCell>
        <mxCell id="-DpK-WTI--ZN_Ye6T3L2-28" value="return user or exception" style="html=1;verticalAlign=bottom;endArrow=open;dashed=1;endSize=8;curved=0;rounded=0;" edge="1" parent="-DpK-WTI--ZN_Ye6T3L2-25" target="-DpK-WTI--ZN_Ye6T3L2-22">
          <mxGeometry relative="1" as="geometry">
            <mxPoint x="-140" y="180" as="targetPoint" />
            <mxPoint x="60" y="180" as="sourcePoint" />
          </mxGeometry>
        </mxCell>
        <mxCell id="-DpK-WTI--ZN_Ye6T3L2-159" value="" style="html=1;points=[[0,0,0,0,5],[0,1,0,0,-5],[1,0,0,0,5],[1,1,0,0,-5]];perimeter=orthogonalPerimeter;outlineConnect=0;targetShapes=umlLifeline;portConstraint=eastwest;newEdgeStyle={&quot;curved&quot;:0,&quot;rounded&quot;:0};" vertex="1" parent="-DpK-WTI--ZN_Ye6T3L2-25">
          <mxGeometry x="66" y="2380" width="10" height="480" as="geometry" />
        </mxCell>
        <mxCell id="-DpK-WTI--ZN_Ye6T3L2-33" value=":&lt;span style=&quot;font-family: &amp;quot;Helvetica Neue&amp;quot;; font-size: 13px; text-align: start; background-color: initial;&quot;&gt;&amp;nbsp;UserDetailsService&lt;/span&gt;" style="shape=umlLifeline;perimeter=lifelinePerimeter;whiteSpace=wrap;html=1;container=0;dropTarget=0;collapsible=0;recursiveResize=0;outlineConnect=0;portConstraint=eastwest;newEdgeStyle={&quot;edgeStyle&quot;:&quot;elbowEdgeStyle&quot;,&quot;elbow&quot;:&quot;vertical&quot;,&quot;curved&quot;:0,&quot;rounded&quot;:0};" vertex="1" parent="1">
          <mxGeometry x="1741" y="40" width="130" height="3060" as="geometry" />
        </mxCell>
        <mxCell id="-DpK-WTI--ZN_Ye6T3L2-34" value="" style="html=1;points=[];perimeter=orthogonalPerimeter;outlineConnect=0;targetShapes=umlLifeline;portConstraint=eastwest;newEdgeStyle={&quot;edgeStyle&quot;:&quot;elbowEdgeStyle&quot;,&quot;elbow&quot;:&quot;vertical&quot;,&quot;curved&quot;:0,&quot;rounded&quot;:0};" vertex="1" parent="-DpK-WTI--ZN_Ye6T3L2-33">
          <mxGeometry x="60" y="80" width="10" height="2690" as="geometry" />
        </mxCell>
        <mxCell id="-DpK-WTI--ZN_Ye6T3L2-149" value="" style="html=1;points=[[0,0,0,0,5],[0,1,0,0,-5],[1,0,0,0,5],[1,1,0,0,-5]];perimeter=orthogonalPerimeter;outlineConnect=0;targetShapes=umlLifeline;portConstraint=eastwest;newEdgeStyle={&quot;curved&quot;:0,&quot;rounded&quot;:0};" vertex="1" parent="-DpK-WTI--ZN_Ye6T3L2-33">
          <mxGeometry x="66" y="2390" width="10" height="140" as="geometry" />
        </mxCell>
        <mxCell id="-DpK-WTI--ZN_Ye6T3L2-37" value=":&lt;span style=&quot;font-family: &amp;quot;Helvetica Neue&amp;quot;; font-size: 13px; text-align: start; background-color: initial;&quot;&gt;&amp;nbsp;UserDao&lt;/span&gt;" style="shape=umlLifeline;perimeter=lifelinePerimeter;whiteSpace=wrap;html=1;container=0;dropTarget=0;collapsible=0;recursiveResize=0;outlineConnect=0;portConstraint=eastwest;newEdgeStyle={&quot;edgeStyle&quot;:&quot;elbowEdgeStyle&quot;,&quot;elbow&quot;:&quot;vertical&quot;,&quot;curved&quot;:0,&quot;rounded&quot;:0};" vertex="1" parent="1">
          <mxGeometry x="1982" y="40" width="130" height="2900" as="geometry" />
        </mxCell>
        <mxCell id="-DpK-WTI--ZN_Ye6T3L2-38" value="" style="html=1;points=[];perimeter=orthogonalPerimeter;outlineConnect=0;targetShapes=umlLifeline;portConstraint=eastwest;newEdgeStyle={&quot;edgeStyle&quot;:&quot;elbowEdgeStyle&quot;,&quot;elbow&quot;:&quot;vertical&quot;,&quot;curved&quot;:0,&quot;rounded&quot;:0};" vertex="1" parent="-DpK-WTI--ZN_Ye6T3L2-37">
          <mxGeometry x="60" y="80" width="10" height="2820" as="geometry" />
        </mxCell>
        <mxCell id="-DpK-WTI--ZN_Ye6T3L2-39" value="" style="html=1;points=[[0,0,0,0,5],[0,1,0,0,-5],[1,0,0,0,5],[1,1,0,0,-5]];perimeter=orthogonalPerimeter;outlineConnect=0;targetShapes=umlLifeline;portConstraint=eastwest;newEdgeStyle={&quot;curved&quot;:0,&quot;rounded&quot;:0};" vertex="1" parent="-DpK-WTI--ZN_Ye6T3L2-37">
          <mxGeometry x="66" y="150" width="10" height="40" as="geometry" />
        </mxCell>
        <mxCell id="-DpK-WTI--ZN_Ye6T3L2-35" value="" style="html=1;points=[[0,0,0,0,5],[0,1,0,0,-5],[1,0,0,0,5],[1,1,0,0,-5]];perimeter=orthogonalPerimeter;outlineConnect=0;targetShapes=umlLifeline;portConstraint=eastwest;newEdgeStyle={&quot;curved&quot;:0,&quot;rounded&quot;:0};" vertex="1" parent="-DpK-WTI--ZN_Ye6T3L2-37">
          <mxGeometry x="66" y="430" width="10" height="100" as="geometry" />
        </mxCell>
        <mxCell id="-DpK-WTI--ZN_Ye6T3L2-41" value="get user by email" style="html=1;verticalAlign=bottom;endArrow=block;curved=0;rounded=0;entryX=0;entryY=0;entryDx=0;entryDy=5;" edge="1" parent="1">
          <mxGeometry x="0.0023" relative="1" as="geometry">
            <mxPoint x="1166" y="190" as="sourcePoint" />
            <mxPoint x="1370" y="190" as="targetPoint" />
            <mxPoint as="offset" />
          </mxGeometry>
        </mxCell>
        <mxCell id="-DpK-WTI--ZN_Ye6T3L2-42" value="get user by email" style="html=1;verticalAlign=bottom;endArrow=block;curved=0;rounded=0;" edge="1" parent="1">
          <mxGeometry x="0.0023" relative="1" as="geometry">
            <mxPoint x="1390" y="190" as="sourcePoint" />
            <mxPoint x="2043.5" y="190" as="targetPoint" />
            <mxPoint as="offset" />
          </mxGeometry>
        </mxCell>
        <mxCell id="-DpK-WTI--ZN_Ye6T3L2-43" value="get user partyId" style="html=1;verticalAlign=bottom;endArrow=block;curved=0;rounded=0;" edge="1" parent="1" target="-DpK-WTI--ZN_Ye6T3L2-37">
          <mxGeometry x="0.0023" relative="1" as="geometry">
            <mxPoint x="955" y="471" as="sourcePoint" />
            <mxPoint x="2000" y="471" as="targetPoint" />
            <mxPoint as="offset" />
          </mxGeometry>
        </mxCell>
        <mxCell id="-DpK-WTI--ZN_Ye6T3L2-45" value="" style="ellipse;whiteSpace=wrap;html=1;align=center;aspect=fixed;fillColor=none;strokeColor=none;resizable=0;perimeter=centerPerimeter;rotatable=0;allowArrows=0;points=[];outlineConnect=1;" vertex="1" parent="1">
          <mxGeometry x="10" y="130" width="10" height="10" as="geometry" />
        </mxCell>
        <mxCell id="-DpK-WTI--ZN_Ye6T3L2-48" value="" style="ellipse;whiteSpace=wrap;html=1;align=center;aspect=fixed;fillColor=none;strokeColor=none;resizable=0;perimeter=centerPerimeter;rotatable=0;allowArrows=0;points=[];outlineConnect=1;" vertex="1" parent="1">
          <mxGeometry x="620" y="138" width="10" height="10" as="geometry" />
        </mxCell>
        <mxCell id="-DpK-WTI--ZN_Ye6T3L2-52" value="" style="ellipse;whiteSpace=wrap;html=1;align=center;aspect=fixed;fillColor=none;strokeColor=none;resizable=0;perimeter=centerPerimeter;rotatable=0;allowArrows=0;points=[];outlineConnect=1;" vertex="1" parent="1">
          <mxGeometry x="2182" y="100" width="10" height="10" as="geometry" />
        </mxCell>
        <mxCell id="-DpK-WTI--ZN_Ye6T3L2-54" value="" style="html=1;points=[[0,0,0,0,5],[0,1,0,0,-5],[1,0,0,0,5],[1,1,0,0,-5]];perimeter=orthogonalPerimeter;outlineConnect=0;targetShapes=umlLifeline;portConstraint=eastwest;newEdgeStyle={&quot;curved&quot;:0,&quot;rounded&quot;:0};" vertex="1" parent="1">
          <mxGeometry x="2312" y="190" width="10" height="40" as="geometry" />
        </mxCell>
        <mxCell id="-DpK-WTI--ZN_Ye6T3L2-55" value="get party by user login from db" style="html=1;verticalAlign=bottom;endArrow=block;curved=0;rounded=0;entryX=0;entryY=0;entryDx=0;entryDy=5;exitX=1;exitY=0;exitDx=0;exitDy=5;exitPerimeter=0;" edge="1" parent="1" source="-DpK-WTI--ZN_Ye6T3L2-39" target="-DpK-WTI--ZN_Ye6T3L2-54">
          <mxGeometry x="-0.0236" y="3" relative="1" as="geometry">
            <mxPoint x="2142" y="145" as="sourcePoint" />
            <mxPoint as="offset" />
          </mxGeometry>
        </mxCell>
        <mxCell id="-DpK-WTI--ZN_Ye6T3L2-56" value="return party if exists in db" style="html=1;verticalAlign=bottom;endArrow=open;dashed=1;endSize=8;curved=0;rounded=0;exitX=0;exitY=1;exitDx=0;exitDy=-5;" edge="1" parent="1">
          <mxGeometry relative="1" as="geometry">
            <mxPoint x="2057" y="224" as="targetPoint" />
            <mxPoint x="2311" y="224" as="sourcePoint" />
          </mxGeometry>
        </mxCell>
        <mxCell id="-DpK-WTI--ZN_Ye6T3L2-57" value="" style="rounded=0;orthogonalLoop=1;jettySize=auto;html=1;endArrow=halfCircle;endFill=0;endSize=6;strokeWidth=1;sketch=0;fontSize=12;curved=1;" edge="1" parent="1">
          <mxGeometry relative="1" as="geometry">
            <mxPoint x="2322" y="209.70999999999998" as="sourcePoint" />
            <mxPoint x="2367" y="209.70999999999998" as="targetPoint" />
          </mxGeometry>
        </mxCell>
        <mxCell id="-DpK-WTI--ZN_Ye6T3L2-58" value="" style="ellipse;whiteSpace=wrap;html=1;align=center;aspect=fixed;fillColor=none;strokeColor=none;resizable=0;perimeter=centerPerimeter;rotatable=0;allowArrows=0;points=[];outlineConnect=1;" vertex="1" parent="1">
          <mxGeometry x="2172" y="150" width="10" height="10" as="geometry" />
        </mxCell>
        <mxCell id="-DpK-WTI--ZN_Ye6T3L2-40" value="return party or throw exception" style="html=1;verticalAlign=bottom;endArrow=open;dashed=1;endSize=8;curved=0;rounded=0;" edge="1" parent="1">
          <mxGeometry relative="1" as="geometry">
            <mxPoint x="1385.0000000000005" y="225" as="targetPoint" />
            <mxPoint x="2040" y="225" as="sourcePoint" />
          </mxGeometry>
        </mxCell>
        <mxCell id="-DpK-WTI--ZN_Ye6T3L2-23" value="return user or exception" style="html=1;verticalAlign=bottom;endArrow=open;dashed=1;endSize=8;curved=0;rounded=0;exitX=0;exitY=1;exitDx=0;exitDy=-5;" edge="1" parent="1" source="-DpK-WTI--ZN_Ye6T3L2-22">
          <mxGeometry relative="1" as="geometry">
            <mxPoint x="100" y="225" as="targetPoint" />
          </mxGeometry>
        </mxCell>
        <mxCell id="-DpK-WTI--ZN_Ye6T3L2-64" value="create errors&amp;nbsp;&amp;nbsp;" style="html=1;verticalAlign=bottom;endArrow=block;curved=0;rounded=0;" edge="1" parent="1">
          <mxGeometry x="0.0526" y="4" relative="1" as="geometry">
            <mxPoint x="100" y="304" as="sourcePoint" />
            <mxPoint x="290" y="304" as="targetPoint" />
            <mxPoint as="offset" />
          </mxGeometry>
        </mxCell>
        <mxCell id="-DpK-WTI--ZN_Ye6T3L2-65" value="return http 409 conflict" style="html=1;verticalAlign=bottom;endArrow=open;dashed=1;endSize=8;curved=0;rounded=0;entryX=1;entryY=1;entryDx=0;entryDy=-5;entryPerimeter=0;" edge="1" parent="1">
          <mxGeometry relative="1" as="geometry">
            <mxPoint x="100" y="370" as="targetPoint" />
            <mxPoint x="290" y="370" as="sourcePoint" />
          </mxGeometry>
        </mxCell>
        <mxCell id="-DpK-WTI--ZN_Ye6T3L2-68" value="http 409 conflict &#xa; code: 1040 - user already exists" style="verticalAlign=bottom;startArrow=oval;endArrow=block;startSize=8;edgeStyle=elbowEdgeStyle;elbow=vertical;curved=0;rounded=0;align=center;" edge="1" parent="1">
          <mxGeometry x="-0.1106" relative="1" as="geometry">
            <mxPoint x="80" y="392" as="sourcePoint" />
            <mxPoint x="-150" y="392" as="targetPoint" />
            <Array as="points">
              <mxPoint x="-140" y="392" />
            </Array>
            <mxPoint as="offset" />
          </mxGeometry>
        </mxCell>
        <mxCell id="-DpK-WTI--ZN_Ye6T3L2-71" value="" style="html=1;points=[[0,0,0,0,5],[0,1,0,0,-5],[1,0,0,0,5],[1,1,0,0,-5]];perimeter=orthogonalPerimeter;outlineConnect=0;targetShapes=umlLifeline;portConstraint=eastwest;newEdgeStyle={&quot;curved&quot;:0,&quot;rounded&quot;:0};" vertex="1" parent="1">
          <mxGeometry x="2313" y="476" width="10" height="82" as="geometry" />
        </mxCell>
        <mxCell id="-DpK-WTI--ZN_Ye6T3L2-72" value="generate new partyId sequence from db" style="html=1;verticalAlign=bottom;endArrow=block;curved=0;rounded=0;entryX=0;entryY=0;entryDx=0;entryDy=5;exitX=1;exitY=0;exitDx=0;exitDy=5;exitPerimeter=0;" edge="1" parent="1" target="-DpK-WTI--ZN_Ye6T3L2-71">
          <mxGeometry x="-0.0236" y="3" relative="1" as="geometry">
            <mxPoint x="2059" y="481" as="sourcePoint" />
            <mxPoint as="offset" />
          </mxGeometry>
        </mxCell>
        <mxCell id="-DpK-WTI--ZN_Ye6T3L2-73" value="return partyId sequence" style="html=1;verticalAlign=bottom;endArrow=open;dashed=1;endSize=8;curved=0;rounded=0;exitX=0;exitY=1;exitDx=0;exitDy=-5;" edge="1" parent="1" source="-DpK-WTI--ZN_Ye6T3L2-71">
          <mxGeometry relative="1" as="geometry">
            <mxPoint x="2059" y="553" as="targetPoint" />
          </mxGeometry>
        </mxCell>
        <mxCell id="-DpK-WTI--ZN_Ye6T3L2-74" value="" style="rounded=0;orthogonalLoop=1;jettySize=auto;html=1;endArrow=halfCircle;endFill=0;endSize=6;strokeWidth=1;sketch=0;fontSize=12;curved=1;" edge="1" parent="1">
          <mxGeometry relative="1" as="geometry">
            <mxPoint x="2323" y="515.76" as="sourcePoint" />
            <mxPoint x="2368" y="515.76" as="targetPoint" />
          </mxGeometry>
        </mxCell>
        <mxCell id="-DpK-WTI--ZN_Ye6T3L2-36" value="return partyId or throw exception" style="html=1;verticalAlign=bottom;endArrow=open;dashed=1;endSize=8;curved=0;rounded=0;exitX=0;exitY=1;exitDx=0;exitDy=-5;" edge="1" parent="1" source="-DpK-WTI--ZN_Ye6T3L2-35" target="-DpK-WTI--ZN_Ye6T3L2-17">
          <mxGeometry relative="1" as="geometry">
            <mxPoint x="1690" y="570" as="targetPoint" />
          </mxGeometry>
        </mxCell>
        <mxCell id="-DpK-WTI--ZN_Ye6T3L2-18" value="return user identifier or exception" style="html=1;verticalAlign=bottom;endArrow=open;dashed=1;endSize=8;curved=0;rounded=0;" edge="1" parent="1">
          <mxGeometry relative="1" as="geometry">
            <mxPoint x="740" y="581" as="targetPoint" />
            <mxPoint x="945" y="581" as="sourcePoint" />
          </mxGeometry>
        </mxCell>
        <mxCell id="-DpK-WTI--ZN_Ye6T3L2-78" value="return create user command with errors" style="html=1;verticalAlign=bottom;endArrow=open;dashed=1;endSize=8;curved=0;rounded=0;exitX=0;exitY=1;exitDx=0;exitDy=-5;" edge="1" parent="1" target="-DpK-WTI--ZN_Ye6T3L2-77">
          <mxGeometry relative="1" as="geometry">
            <mxPoint x="300" y="700" as="targetPoint" />
            <mxPoint x="496" y="699.9999999999998" as="sourcePoint" />
          </mxGeometry>
        </mxCell>
        <mxCell id="-DpK-WTI--ZN_Ye6T3L2-81" value="" style="html=1;points=[[0,0,0,0,5],[0,1,0,0,-5],[1,0,0,0,5],[1,1,0,0,-5]];perimeter=orthogonalPerimeter;outlineConnect=0;targetShapes=umlLifeline;portConstraint=eastwest;newEdgeStyle={&quot;curved&quot;:0,&quot;rounded&quot;:0};" vertex="1" parent="1">
          <mxGeometry x="295" y="788" width="10" height="75" as="geometry" />
        </mxCell>
        <mxCell id="-DpK-WTI--ZN_Ye6T3L2-82" value="create errors&amp;nbsp;&amp;nbsp;" style="html=1;verticalAlign=bottom;endArrow=block;curved=0;rounded=0;" edge="1" parent="1">
          <mxGeometry x="0.0569" y="4" relative="1" as="geometry">
            <mxPoint x="110" y="792" as="sourcePoint" />
            <mxPoint x="291" y="792" as="targetPoint" />
            <mxPoint as="offset" />
          </mxGeometry>
        </mxCell>
        <mxCell id="-DpK-WTI--ZN_Ye6T3L2-83" value="return http 500 internal server error" style="html=1;verticalAlign=bottom;endArrow=open;dashed=1;endSize=8;curved=0;rounded=0;" edge="1" parent="1">
          <mxGeometry relative="1" as="geometry">
            <mxPoint x="110" y="858" as="targetPoint" />
            <mxPoint x="290" y="860" as="sourcePoint" />
          </mxGeometry>
        </mxCell>
        <mxCell id="-DpK-WTI--ZN_Ye6T3L2-84" value="http 500 internal server error &#xa;code 1010: error to generate user identifier" style="verticalAlign=bottom;startArrow=oval;endArrow=block;startSize=8;edgeStyle=elbowEdgeStyle;elbow=vertical;curved=0;rounded=0;align=center;" edge="1" parent="1">
          <mxGeometry x="-0.1106" relative="1" as="geometry">
            <mxPoint x="80" y="870" as="sourcePoint" />
            <mxPoint x="-150" y="870" as="targetPoint" />
            <Array as="points">
              <mxPoint x="-140" y="870" />
            </Array>
            <mxPoint as="offset" />
          </mxGeometry>
        </mxCell>
        <mxCell id="-DpK-WTI--ZN_Ye6T3L2-85" value="" style="html=1;points=[[0,0,0,0,5],[0,1,0,0,-5],[1,0,0,0,5],[1,1,0,0,-5]];perimeter=orthogonalPerimeter;outlineConnect=0;targetShapes=umlLifeline;portConstraint=eastwest;newEdgeStyle={&quot;curved&quot;:0,&quot;rounded&quot;:0};" vertex="1" parent="1">
          <mxGeometry x="944" y="919" width="10" height="130" as="geometry" />
        </mxCell>
        <mxCell id="-DpK-WTI--ZN_Ye6T3L2-86" value="get user uuid" style="html=1;verticalAlign=bottom;endArrow=block;curved=0;rounded=0;entryX=0;entryY=0;entryDx=0;entryDy=5;" edge="1" parent="1">
          <mxGeometry relative="1" as="geometry">
            <mxPoint x="739" y="917" as="sourcePoint" />
            <mxPoint x="939" y="917" as="targetPoint" />
            <mxPoint as="offset" />
          </mxGeometry>
        </mxCell>
        <mxCell id="-DpK-WTI--ZN_Ye6T3L2-87" value="return user uuid or exception" style="html=1;verticalAlign=bottom;endArrow=open;dashed=1;endSize=8;curved=0;rounded=0;" edge="1" parent="1">
          <mxGeometry x="-0.0027" relative="1" as="geometry">
            <mxPoint x="739" y="1040" as="targetPoint" />
            <mxPoint x="944" y="1040" as="sourcePoint" />
            <mxPoint as="offset" />
          </mxGeometry>
        </mxCell>
        <mxCell id="-DpK-WTI--ZN_Ye6T3L2-90" value="" style="html=1;points=[[0,0,0,0,5],[0,1,0,0,-5],[1,0,0,0,5],[1,1,0,0,-5]];perimeter=orthogonalPerimeter;outlineConnect=0;targetShapes=umlLifeline;portConstraint=eastwest;newEdgeStyle={&quot;curved&quot;:0,&quot;rounded&quot;:0};" vertex="1" parent="1">
          <mxGeometry x="731" y="1109" width="10" height="50" as="geometry" />
        </mxCell>
        <mxCell id="-DpK-WTI--ZN_Ye6T3L2-91" value="if exists exception set errors&amp;nbsp;&lt;div&gt;in command&lt;/div&gt;" style="html=1;align=left;spacingLeft=2;endArrow=block;rounded=0;edgeStyle=orthogonalEdgeStyle;curved=0;rounded=0;" edge="1" parent="1" target="-DpK-WTI--ZN_Ye6T3L2-90">
          <mxGeometry relative="1" as="geometry">
            <mxPoint x="736" y="1089" as="sourcePoint" />
            <Array as="points">
              <mxPoint x="759" y="1119" />
            </Array>
          </mxGeometry>
        </mxCell>
        <mxCell id="-DpK-WTI--ZN_Ye6T3L2-93" value="return create user command with errors" style="html=1;verticalAlign=bottom;endArrow=open;dashed=1;endSize=8;curved=0;rounded=0;exitX=0;exitY=1;exitDx=0;exitDy=-5;" edge="1" parent="1">
          <mxGeometry relative="1" as="geometry">
            <mxPoint x="520" y="1157" as="targetPoint" />
            <mxPoint x="716" y="1156.9999999999998" as="sourcePoint" />
          </mxGeometry>
        </mxCell>
        <mxCell id="-DpK-WTI--ZN_Ye6T3L2-94" value="return create user command with errors" style="html=1;verticalAlign=bottom;endArrow=open;dashed=1;endSize=8;curved=0;rounded=0;exitX=0;exitY=1;exitDx=0;exitDy=-5;" edge="1" parent="1">
          <mxGeometry relative="1" as="geometry">
            <mxPoint x="103" y="1170" as="targetPoint" />
            <mxPoint x="499" y="1169.9999999999998" as="sourcePoint" />
          </mxGeometry>
        </mxCell>
        <mxCell id="-DpK-WTI--ZN_Ye6T3L2-102" value="" style="html=1;points=[[0,0,0,0,5],[0,1,0,0,-5],[1,0,0,0,5],[1,1,0,0,-5]];perimeter=orthogonalPerimeter;outlineConnect=0;targetShapes=umlLifeline;portConstraint=eastwest;newEdgeStyle={&quot;curved&quot;:0,&quot;rounded&quot;:0};" vertex="1" parent="1">
          <mxGeometry x="95" y="1219" width="10" height="120" as="geometry" />
        </mxCell>
        <mxCell id="-DpK-WTI--ZN_Ye6T3L2-103" value="if exists errors in command" style="html=1;align=left;spacingLeft=2;endArrow=block;rounded=0;edgeStyle=orthogonalEdgeStyle;curved=0;rounded=0;" edge="1" parent="1" target="-DpK-WTI--ZN_Ye6T3L2-102">
          <mxGeometry relative="1" as="geometry">
            <mxPoint x="100" y="1200" as="sourcePoint" />
            <Array as="points">
              <mxPoint x="126" y="1229" />
            </Array>
          </mxGeometry>
        </mxCell>
        <mxCell id="-DpK-WTI--ZN_Ye6T3L2-104" value="" style="html=1;points=[[0,0,0,0,5],[0,1,0,0,-5],[1,0,0,0,5],[1,1,0,0,-5]];perimeter=orthogonalPerimeter;outlineConnect=0;targetShapes=umlLifeline;portConstraint=eastwest;newEdgeStyle={&quot;curved&quot;:0,&quot;rounded&quot;:0};" vertex="1" parent="1">
          <mxGeometry x="296" y="1247" width="10" height="75" as="geometry" />
        </mxCell>
        <mxCell id="-DpK-WTI--ZN_Ye6T3L2-105" value="create errors&amp;nbsp;" style="html=1;verticalAlign=bottom;endArrow=block;curved=0;rounded=0;" edge="1" parent="1">
          <mxGeometry x="0.0526" y="4" relative="1" as="geometry">
            <mxPoint x="110" y="1251" as="sourcePoint" />
            <mxPoint x="292" y="1251" as="targetPoint" />
            <mxPoint as="offset" />
          </mxGeometry>
        </mxCell>
        <mxCell id="-DpK-WTI--ZN_Ye6T3L2-106" value="return http 500 internal server error" style="html=1;verticalAlign=bottom;endArrow=open;dashed=1;endSize=8;curved=0;rounded=0;" edge="1" parent="1">
          <mxGeometry relative="1" as="geometry">
            <mxPoint x="110" y="1317" as="targetPoint" />
            <mxPoint x="280" y="1317" as="sourcePoint" />
          </mxGeometry>
        </mxCell>
        <mxCell id="-DpK-WTI--ZN_Ye6T3L2-107" value="http 500 internal server error &#xa;code 1010: error to generate user uuid" style="verticalAlign=bottom;startArrow=oval;endArrow=block;startSize=8;edgeStyle=elbowEdgeStyle;elbow=vertical;curved=0;rounded=0;align=center;" edge="1" parent="1">
          <mxGeometry x="-0.1106" relative="1" as="geometry">
            <mxPoint x="81" y="1329" as="sourcePoint" />
            <mxPoint x="-149" y="1329" as="targetPoint" />
            <Array as="points">
              <mxPoint x="-139" y="1329" />
            </Array>
            <mxPoint as="offset" />
          </mxGeometry>
        </mxCell>
        <mxCell id="-DpK-WTI--ZN_Ye6T3L2-108" value="" style="html=1;points=[[0,0,0,0,5],[0,1,0,0,-5],[1,0,0,0,5],[1,1,0,0,-5]];perimeter=orthogonalPerimeter;outlineConnect=0;targetShapes=umlLifeline;portConstraint=eastwest;newEdgeStyle={&quot;curved&quot;:0,&quot;rounded&quot;:0};" vertex="1" parent="1">
          <mxGeometry x="733" y="1420" width="10" height="50" as="geometry" />
        </mxCell>
        <mxCell id="-DpK-WTI--ZN_Ye6T3L2-109" value="validate user domain&amp;nbsp;&lt;div&gt;if exists errors&lt;/div&gt;" style="html=1;align=left;spacingLeft=2;endArrow=block;rounded=0;edgeStyle=orthogonalEdgeStyle;curved=0;rounded=0;" edge="1" parent="1" target="-DpK-WTI--ZN_Ye6T3L2-108">
          <mxGeometry relative="1" as="geometry">
            <mxPoint x="738" y="1400" as="sourcePoint" />
            <Array as="points">
              <mxPoint x="761" y="1430" />
            </Array>
          </mxGeometry>
        </mxCell>
        <mxCell id="-DpK-WTI--ZN_Ye6T3L2-110" value="return create user command with errors" style="html=1;verticalAlign=bottom;endArrow=open;dashed=1;endSize=8;curved=0;rounded=0;exitX=0;exitY=1;exitDx=0;exitDy=-5;" edge="1" parent="1">
          <mxGeometry relative="1" as="geometry">
            <mxPoint x="522" y="1464" as="targetPoint" />
            <mxPoint x="718" y="1463.9999999999998" as="sourcePoint" />
          </mxGeometry>
        </mxCell>
        <mxCell id="-DpK-WTI--ZN_Ye6T3L2-111" value="return create user command with errors" style="html=1;verticalAlign=bottom;endArrow=open;dashed=1;endSize=8;curved=0;rounded=0;exitX=0;exitY=1;exitDx=0;exitDy=-5;" edge="1" parent="1">
          <mxGeometry relative="1" as="geometry">
            <mxPoint x="101" y="1477" as="targetPoint" />
            <mxPoint x="497" y="1476.9999999999998" as="sourcePoint" />
          </mxGeometry>
        </mxCell>
        <mxCell id="-DpK-WTI--ZN_Ye6T3L2-117" value="" style="html=1;points=[[0,0,0,0,5],[0,1,0,0,-5],[1,0,0,0,5],[1,1,0,0,-5]];perimeter=orthogonalPerimeter;outlineConnect=0;targetShapes=umlLifeline;portConstraint=eastwest;newEdgeStyle={&quot;curved&quot;:0,&quot;rounded&quot;:0};" vertex="1" parent="1">
          <mxGeometry x="95" y="1536" width="10" height="120" as="geometry" />
        </mxCell>
        <mxCell id="-DpK-WTI--ZN_Ye6T3L2-118" value="if exists errors in command" style="html=1;align=left;spacingLeft=2;endArrow=block;rounded=0;edgeStyle=orthogonalEdgeStyle;curved=0;rounded=0;" edge="1" parent="1" target="-DpK-WTI--ZN_Ye6T3L2-117">
          <mxGeometry relative="1" as="geometry">
            <mxPoint x="100" y="1517" as="sourcePoint" />
            <Array as="points">
              <mxPoint x="126" y="1546" />
            </Array>
          </mxGeometry>
        </mxCell>
        <mxCell id="-DpK-WTI--ZN_Ye6T3L2-119" value="create errors&amp;nbsp;&amp;nbsp;" style="html=1;verticalAlign=bottom;endArrow=block;curved=0;rounded=0;" edge="1" parent="1">
          <mxGeometry x="0.0526" y="4" relative="1" as="geometry">
            <mxPoint x="110" y="1568" as="sourcePoint" />
            <mxPoint x="292" y="1568" as="targetPoint" />
            <mxPoint as="offset" />
          </mxGeometry>
        </mxCell>
        <mxCell id="-DpK-WTI--ZN_Ye6T3L2-120" value="return http 409 conflict server error" style="html=1;verticalAlign=bottom;endArrow=open;dashed=1;endSize=8;curved=0;rounded=0;" edge="1" parent="1">
          <mxGeometry relative="1" as="geometry">
            <mxPoint x="110" y="1634" as="targetPoint" />
            <mxPoint x="290" y="1634" as="sourcePoint" />
          </mxGeometry>
        </mxCell>
        <mxCell id="-DpK-WTI--ZN_Ye6T3L2-121" value="http 409 conflict error &#xa;code 1010:  error user domain validations" style="verticalAlign=bottom;startArrow=oval;endArrow=block;startSize=8;edgeStyle=elbowEdgeStyle;elbow=vertical;curved=0;rounded=0;align=center;" edge="1" parent="1">
          <mxGeometry x="-0.113" relative="1" as="geometry">
            <mxPoint x="81" y="1646" as="sourcePoint" />
            <mxPoint x="-149" y="1646" as="targetPoint" />
            <Array as="points">
              <mxPoint x="-139" y="1646" />
            </Array>
            <mxPoint as="offset" />
          </mxGeometry>
        </mxCell>
        <mxCell id="-DpK-WTI--ZN_Ye6T3L2-123" value="" style="html=1;points=[[0,0,0,0,5],[0,1,0,0,-5],[1,0,0,0,5],[1,1,0,0,-5]];perimeter=orthogonalPerimeter;outlineConnect=0;targetShapes=umlLifeline;portConstraint=eastwest;newEdgeStyle={&quot;curved&quot;:0,&quot;rounded&quot;:0};" vertex="1" parent="1">
          <mxGeometry x="2047" y="1717" width="10" height="100" as="geometry" />
        </mxCell>
        <mxCell id="-DpK-WTI--ZN_Ye6T3L2-124" value="save party with roles and phones" style="html=1;verticalAlign=bottom;endArrow=block;curved=0;rounded=0;" edge="1" parent="1" target="-DpK-WTI--ZN_Ye6T3L2-37">
          <mxGeometry x="0.0023" relative="1" as="geometry">
            <mxPoint x="960" y="1720" as="sourcePoint" />
            <mxPoint x="1999" y="1718" as="targetPoint" />
            <mxPoint as="offset" />
          </mxGeometry>
        </mxCell>
        <mxCell id="-DpK-WTI--ZN_Ye6T3L2-125" value="" style="html=1;points=[[0,0,0,0,5],[0,1,0,0,-5],[1,0,0,0,5],[1,1,0,0,-5]];perimeter=orthogonalPerimeter;outlineConnect=0;targetShapes=umlLifeline;portConstraint=eastwest;newEdgeStyle={&quot;curved&quot;:0,&quot;rounded&quot;:0};" vertex="1" parent="1">
          <mxGeometry x="2312" y="1723" width="10" height="82" as="geometry" />
        </mxCell>
        <mxCell id="-DpK-WTI--ZN_Ye6T3L2-126" value="save in db party, user login, roles&amp;nbsp;&lt;div&gt;and phones in the contact mechanism&amp;nbsp;&lt;/div&gt;" style="html=1;verticalAlign=bottom;endArrow=block;curved=0;rounded=0;entryX=0;entryY=0;entryDx=0;entryDy=5;exitX=1;exitY=0;exitDx=0;exitDy=5;exitPerimeter=0;" edge="1" parent="1" target="-DpK-WTI--ZN_Ye6T3L2-125">
          <mxGeometry x="-0.0236" y="3" relative="1" as="geometry">
            <mxPoint x="2058" y="1728" as="sourcePoint" />
            <mxPoint as="offset" />
          </mxGeometry>
        </mxCell>
        <mxCell id="-DpK-WTI--ZN_Ye6T3L2-127" value="return return party with all fields" style="html=1;verticalAlign=bottom;endArrow=open;dashed=1;endSize=8;curved=0;rounded=0;exitX=0;exitY=1;exitDx=0;exitDy=-5;" edge="1" parent="1" source="-DpK-WTI--ZN_Ye6T3L2-125">
          <mxGeometry relative="1" as="geometry">
            <mxPoint x="2058" y="1800" as="targetPoint" />
          </mxGeometry>
        </mxCell>
        <mxCell id="-DpK-WTI--ZN_Ye6T3L2-128" value="" style="rounded=0;orthogonalLoop=1;jettySize=auto;html=1;endArrow=halfCircle;endFill=0;endSize=6;strokeWidth=1;sketch=0;fontSize=12;curved=1;" edge="1" parent="1">
          <mxGeometry relative="1" as="geometry">
            <mxPoint x="2322" y="1762.76" as="sourcePoint" />
            <mxPoint x="2367" y="1762.76" as="targetPoint" />
          </mxGeometry>
        </mxCell>
        <mxCell id="-DpK-WTI--ZN_Ye6T3L2-129" value="return party saved or throw exception" style="html=1;verticalAlign=bottom;endArrow=open;dashed=1;endSize=8;curved=0;rounded=0;exitX=0;exitY=1;exitDx=0;exitDy=-5;" edge="1" parent="1" source="-DpK-WTI--ZN_Ye6T3L2-123">
          <mxGeometry relative="1" as="geometry">
            <mxPoint x="954" y="1812" as="targetPoint" />
          </mxGeometry>
        </mxCell>
        <mxCell id="-DpK-WTI--ZN_Ye6T3L2-132" value="add user with roles and phones" style="html=1;verticalAlign=bottom;endArrow=block;curved=0;rounded=0;entryX=0;entryY=0;entryDx=0;entryDy=5;" edge="1" parent="1">
          <mxGeometry relative="1" as="geometry">
            <mxPoint x="739" y="1706" as="sourcePoint" />
            <mxPoint x="939" y="1706" as="targetPoint" />
            <mxPoint as="offset" />
          </mxGeometry>
        </mxCell>
        <mxCell id="-DpK-WTI--ZN_Ye6T3L2-133" value="return user uuid or exception" style="html=1;verticalAlign=bottom;endArrow=open;dashed=1;endSize=8;curved=0;rounded=0;" edge="1" parent="1">
          <mxGeometry x="-0.0027" relative="1" as="geometry">
            <mxPoint x="739" y="1829" as="targetPoint" />
            <mxPoint x="944" y="1829" as="sourcePoint" />
            <mxPoint as="offset" />
          </mxGeometry>
        </mxCell>
        <mxCell id="-DpK-WTI--ZN_Ye6T3L2-134" value="" style="html=1;points=[[0,0,0,0,5],[0,1,0,0,-5],[1,0,0,0,5],[1,1,0,0,-5]];perimeter=orthogonalPerimeter;outlineConnect=0;targetShapes=umlLifeline;portConstraint=eastwest;newEdgeStyle={&quot;curved&quot;:0,&quot;rounded&quot;:0};" vertex="1" parent="1">
          <mxGeometry x="731" y="1893" width="10" height="50" as="geometry" />
        </mxCell>
        <mxCell id="-DpK-WTI--ZN_Ye6T3L2-135" value="if exists exception set errors&amp;nbsp;&lt;div&gt;in command&lt;/div&gt;" style="html=1;align=left;spacingLeft=2;endArrow=block;rounded=0;edgeStyle=orthogonalEdgeStyle;curved=0;rounded=0;" edge="1" parent="1" target="-DpK-WTI--ZN_Ye6T3L2-134">
          <mxGeometry relative="1" as="geometry">
            <mxPoint x="736" y="1873" as="sourcePoint" />
            <Array as="points">
              <mxPoint x="759" y="1903" />
            </Array>
          </mxGeometry>
        </mxCell>
        <mxCell id="-DpK-WTI--ZN_Ye6T3L2-136" value="return create user command with errors" style="html=1;verticalAlign=bottom;endArrow=open;dashed=1;endSize=8;curved=0;rounded=0;exitX=0;exitY=1;exitDx=0;exitDy=-5;" edge="1" parent="1">
          <mxGeometry relative="1" as="geometry">
            <mxPoint x="521" y="1936" as="targetPoint" />
            <mxPoint x="717" y="1935.9999999999998" as="sourcePoint" />
          </mxGeometry>
        </mxCell>
        <mxCell id="-DpK-WTI--ZN_Ye6T3L2-137" value="return create user command with errors" style="html=1;verticalAlign=bottom;endArrow=open;dashed=1;endSize=8;curved=0;rounded=0;exitX=0;exitY=1;exitDx=0;exitDy=-5;" edge="1" parent="1">
          <mxGeometry relative="1" as="geometry">
            <mxPoint x="101" y="1949" as="targetPoint" />
            <mxPoint x="497" y="1948.9999999999998" as="sourcePoint" />
          </mxGeometry>
        </mxCell>
        <mxCell id="-DpK-WTI--ZN_Ye6T3L2-138" value="" style="html=1;points=[[0,0,0,0,5],[0,1,0,0,-5],[1,0,0,0,5],[1,1,0,0,-5]];perimeter=orthogonalPerimeter;outlineConnect=0;targetShapes=umlLifeline;portConstraint=eastwest;newEdgeStyle={&quot;curved&quot;:0,&quot;rounded&quot;:0};" vertex="1" parent="1">
          <mxGeometry x="95" y="2008" width="10" height="120" as="geometry" />
        </mxCell>
        <mxCell id="-DpK-WTI--ZN_Ye6T3L2-139" value="if exists errors in command" style="html=1;align=left;spacingLeft=2;endArrow=block;rounded=0;edgeStyle=orthogonalEdgeStyle;curved=0;rounded=0;" edge="1" parent="1" target="-DpK-WTI--ZN_Ye6T3L2-138">
          <mxGeometry relative="1" as="geometry">
            <mxPoint x="100" y="1989" as="sourcePoint" />
            <Array as="points">
              <mxPoint x="126" y="2018" />
            </Array>
          </mxGeometry>
        </mxCell>
        <mxCell id="-DpK-WTI--ZN_Ye6T3L2-140" value="create errors&amp;nbsp;&amp;nbsp;" style="html=1;verticalAlign=bottom;endArrow=block;curved=0;rounded=0;" edge="1" parent="1">
          <mxGeometry x="0.0526" y="4" relative="1" as="geometry">
            <mxPoint x="110" y="2040" as="sourcePoint" />
            <mxPoint x="292" y="2040" as="targetPoint" />
            <mxPoint as="offset" />
          </mxGeometry>
        </mxCell>
        <mxCell id="-DpK-WTI--ZN_Ye6T3L2-141" value="return http 500 internal server error" style="html=1;verticalAlign=bottom;endArrow=open;dashed=1;endSize=8;curved=0;rounded=0;" edge="1" parent="1">
          <mxGeometry x="0.0048" relative="1" as="geometry">
            <mxPoint x="110" y="2106" as="targetPoint" />
            <mxPoint x="290" y="2106" as="sourcePoint" />
            <mxPoint as="offset" />
          </mxGeometry>
        </mxCell>
        <mxCell id="-DpK-WTI--ZN_Ye6T3L2-142" value="http 500 internal server error &#xa;code 1020: error to save user" style="verticalAlign=bottom;startArrow=oval;endArrow=block;startSize=8;edgeStyle=elbowEdgeStyle;elbow=vertical;curved=0;rounded=0;align=center;" edge="1" parent="1">
          <mxGeometry x="-0.1217" y="-8" relative="1" as="geometry">
            <mxPoint x="81" y="2118" as="sourcePoint" />
            <mxPoint x="-149" y="2118" as="targetPoint" />
            <Array as="points">
              <mxPoint x="-139" y="2118" />
            </Array>
            <mxPoint as="offset" />
          </mxGeometry>
        </mxCell>
        <mxCell id="-DpK-WTI--ZN_Ye6T3L2-144" value="return create user command successful" style="html=1;verticalAlign=bottom;endArrow=open;dashed=1;endSize=8;curved=0;rounded=0;exitX=0;exitY=1;exitDx=0;exitDy=-5;" edge="1" parent="1">
          <mxGeometry relative="1" as="geometry">
            <mxPoint x="520" y="2310" as="targetPoint" />
            <mxPoint x="716" y="2310" as="sourcePoint" />
          </mxGeometry>
        </mxCell>
        <mxCell id="-DpK-WTI--ZN_Ye6T3L2-145" value="return create user command successful" style="html=1;verticalAlign=bottom;endArrow=open;dashed=1;endSize=8;curved=0;rounded=0;exitX=0;exitY=1;exitDx=0;exitDy=-5;" edge="1" parent="1">
          <mxGeometry relative="1" as="geometry">
            <mxPoint x="101" y="2320" as="targetPoint" />
            <mxPoint x="497" y="2320" as="sourcePoint" />
          </mxGeometry>
        </mxCell>
        <mxCell id="-DpK-WTI--ZN_Ye6T3L2-146" value="create auth token" style="html=1;verticalAlign=bottom;endArrow=block;curved=0;rounded=0;" edge="1" parent="1" target="-DpK-WTI--ZN_Ye6T3L2-21">
          <mxGeometry x="0.02" relative="1" as="geometry">
            <mxPoint x="100.5" y="2410" as="sourcePoint" />
            <mxPoint x="1120" y="2410" as="targetPoint" />
            <mxPoint as="offset" />
          </mxGeometry>
        </mxCell>
        <mxCell id="-DpK-WTI--ZN_Ye6T3L2-154" value=":&lt;span style=&quot;font-family: &amp;quot;Helvetica Neue&amp;quot;; font-size: 13px; text-align: start; background-color: initial;&quot;&gt;&amp;nbsp;AutenticationManager&lt;/span&gt;" style="shape=umlLifeline;perimeter=lifelinePerimeter;whiteSpace=wrap;html=1;container=0;dropTarget=0;collapsible=0;recursiveResize=0;outlineConnect=0;portConstraint=eastwest;newEdgeStyle={&quot;edgeStyle&quot;:&quot;elbowEdgeStyle&quot;,&quot;elbow&quot;:&quot;vertical&quot;,&quot;curved&quot;:0,&quot;rounded&quot;:0};" vertex="1" parent="1">
          <mxGeometry x="1530" y="40" width="150" height="2850" as="geometry" />
        </mxCell>
        <mxCell id="-DpK-WTI--ZN_Ye6T3L2-155" value="" style="html=1;points=[];perimeter=orthogonalPerimeter;outlineConnect=0;targetShapes=umlLifeline;portConstraint=eastwest;newEdgeStyle={&quot;edgeStyle&quot;:&quot;elbowEdgeStyle&quot;,&quot;elbow&quot;:&quot;vertical&quot;,&quot;curved&quot;:0,&quot;rounded&quot;:0};" vertex="1" parent="-DpK-WTI--ZN_Ye6T3L2-154">
          <mxGeometry x="70" y="78" width="10" height="2682" as="geometry" />
        </mxCell>
        <mxCell id="-DpK-WTI--ZN_Ye6T3L2-158" value="" style="html=1;points=[[0,0,0,0,5],[0,1,0,0,-5],[1,0,0,0,5],[1,1,0,0,-5]];perimeter=orthogonalPerimeter;outlineConnect=0;targetShapes=umlLifeline;portConstraint=eastwest;newEdgeStyle={&quot;curved&quot;:0,&quot;rounded&quot;:0};" vertex="1" parent="-DpK-WTI--ZN_Ye6T3L2-154">
          <mxGeometry x="76" y="2380" width="10" height="370" as="geometry" />
        </mxCell>
        <mxCell id="-DpK-WTI--ZN_Ye6T3L2-173" value="" style="html=1;points=[[0,0,0,0,5],[0,1,0,0,-5],[1,0,0,0,5],[1,1,0,0,-5]];perimeter=orthogonalPerimeter;outlineConnect=0;targetShapes=umlLifeline;portConstraint=eastwest;newEdgeStyle={&quot;curved&quot;:0,&quot;rounded&quot;:0};" vertex="1" parent="-DpK-WTI--ZN_Ye6T3L2-154">
          <mxGeometry x="81" y="2580" width="10" height="40" as="geometry" />
        </mxCell>
        <mxCell id="-DpK-WTI--ZN_Ye6T3L2-174" value="authenticate&lt;div&gt;else set exception&lt;/div&gt;" style="html=1;align=left;spacingLeft=2;endArrow=block;rounded=0;edgeStyle=orthogonalEdgeStyle;curved=0;rounded=0;" edge="1" parent="-DpK-WTI--ZN_Ye6T3L2-154" target="-DpK-WTI--ZN_Ye6T3L2-173">
          <mxGeometry relative="1" as="geometry">
            <mxPoint x="86" y="2560" as="sourcePoint" />
            <Array as="points">
              <mxPoint x="116" y="2590" />
            </Array>
          </mxGeometry>
        </mxCell>
        <mxCell id="-DpK-WTI--ZN_Ye6T3L2-160" value="authenticate saved user" style="html=1;verticalAlign=bottom;endArrow=block;curved=0;rounded=0;entryX=0;entryY=0;entryDx=0;entryDy=5;" edge="1" parent="1">
          <mxGeometry x="0.0023" relative="1" as="geometry">
            <mxPoint x="1389" y="2428" as="sourcePoint" />
            <mxPoint x="1593" y="2428" as="targetPoint" />
            <mxPoint as="offset" />
          </mxGeometry>
        </mxCell>
        <mxCell id="-DpK-WTI--ZN_Ye6T3L2-161" value="authenticate saved user" style="html=1;verticalAlign=bottom;endArrow=block;curved=0;rounded=0;entryX=0;entryY=0;entryDx=0;entryDy=5;" edge="1" parent="1">
          <mxGeometry x="0.0023" relative="1" as="geometry">
            <mxPoint x="1617" y="2430" as="sourcePoint" />
            <mxPoint x="1811" y="2430" as="targetPoint" />
            <mxPoint as="offset" />
          </mxGeometry>
        </mxCell>
        <mxCell id="-DpK-WTI--ZN_Ye6T3L2-163" value="find party by user login" style="html=1;verticalAlign=bottom;endArrow=block;curved=0;rounded=0;" edge="1" parent="1" target="-DpK-WTI--ZN_Ye6T3L2-37">
          <mxGeometry x="0.0004" relative="1" as="geometry">
            <mxPoint x="1820" y="2440" as="sourcePoint" />
            <mxPoint x="2000" y="2440" as="targetPoint" />
            <mxPoint as="offset" />
          </mxGeometry>
        </mxCell>
        <mxCell id="-DpK-WTI--ZN_Ye6T3L2-166" value="" style="html=1;points=[[0,0,0,0,5],[0,1,0,0,-5],[1,0,0,0,5],[1,1,0,0,-5]];perimeter=orthogonalPerimeter;outlineConnect=0;targetShapes=umlLifeline;portConstraint=eastwest;newEdgeStyle={&quot;curved&quot;:0,&quot;rounded&quot;:0};" vertex="1" parent="1">
          <mxGeometry x="2047" y="2440" width="10" height="120" as="geometry" />
        </mxCell>
        <mxCell id="-DpK-WTI--ZN_Ye6T3L2-167" value="" style="html=1;points=[[0,0,0,0,5],[0,1,0,0,-5],[1,0,0,0,5],[1,1,0,0,-5]];perimeter=orthogonalPerimeter;outlineConnect=0;targetShapes=umlLifeline;portConstraint=eastwest;newEdgeStyle={&quot;curved&quot;:0,&quot;rounded&quot;:0};" vertex="1" parent="1">
          <mxGeometry x="2312" y="2456" width="10" height="82" as="geometry" />
        </mxCell>
        <mxCell id="-DpK-WTI--ZN_Ye6T3L2-168" value="get party by user login with roles and phones" style="html=1;verticalAlign=bottom;endArrow=block;curved=0;rounded=0;entryX=0;entryY=0;entryDx=0;entryDy=5;exitX=1;exitY=0;exitDx=0;exitDy=5;exitPerimeter=0;" edge="1" parent="1" target="-DpK-WTI--ZN_Ye6T3L2-167">
          <mxGeometry x="-0.0236" y="3" relative="1" as="geometry">
            <mxPoint x="2058" y="2461" as="sourcePoint" />
            <mxPoint as="offset" />
          </mxGeometry>
        </mxCell>
        <mxCell id="-DpK-WTI--ZN_Ye6T3L2-169" value="return return party with all fields" style="html=1;verticalAlign=bottom;endArrow=open;dashed=1;endSize=8;curved=0;rounded=0;exitX=0;exitY=1;exitDx=0;exitDy=-5;" edge="1" parent="1" source="-DpK-WTI--ZN_Ye6T3L2-167">
          <mxGeometry relative="1" as="geometry">
            <mxPoint x="2058" y="2533" as="targetPoint" />
          </mxGeometry>
        </mxCell>
        <mxCell id="-DpK-WTI--ZN_Ye6T3L2-170" value="" style="rounded=0;orthogonalLoop=1;jettySize=auto;html=1;endArrow=halfCircle;endFill=0;endSize=6;strokeWidth=1;sketch=0;fontSize=12;curved=1;" edge="1" parent="1">
          <mxGeometry relative="1" as="geometry">
            <mxPoint x="2322" y="2495.76" as="sourcePoint" />
            <mxPoint x="2367" y="2495.76" as="targetPoint" />
          </mxGeometry>
        </mxCell>
        <mxCell id="-DpK-WTI--ZN_Ye6T3L2-171" value="return found party or throw exception" style="html=1;verticalAlign=bottom;endArrow=open;dashed=1;endSize=8;curved=0;rounded=0;" edge="1" parent="1">
          <mxGeometry y="-11" relative="1" as="geometry">
            <mxPoint x="1820" y="2550" as="targetPoint" />
            <mxPoint x="2040" y="2551" as="sourcePoint" />
            <mxPoint as="offset" />
          </mxGeometry>
        </mxCell>
        <mxCell id="-DpK-WTI--ZN_Ye6T3L2-172" value="return found party or get exception" style="html=1;verticalAlign=bottom;endArrow=open;dashed=1;endSize=8;curved=0;rounded=0;" edge="1" parent="1">
          <mxGeometry y="-11" relative="1" as="geometry">
            <mxPoint x="1620" y="2566" as="targetPoint" />
            <mxPoint x="1800" y="2566" as="sourcePoint" />
            <mxPoint as="offset" />
          </mxGeometry>
        </mxCell>
        <mxCell id="-DpK-WTI--ZN_Ye6T3L2-175" value="return authentication or exception" style="html=1;verticalAlign=bottom;endArrow=open;dashed=1;endSize=8;curved=0;rounded=0;" edge="1" parent="1">
          <mxGeometry y="-11" relative="1" as="geometry">
            <mxPoint x="1390" y="2670" as="targetPoint" />
            <mxPoint x="1600" y="2670" as="sourcePoint" />
            <mxPoint as="offset" />
          </mxGeometry>
        </mxCell>
        <mxCell id="-DpK-WTI--ZN_Ye6T3L2-177" value="" style="html=1;points=[[0,0,0,0,5],[0,1,0,0,-5],[1,0,0,0,5],[1,1,0,0,-5]];perimeter=orthogonalPerimeter;outlineConnect=0;targetShapes=umlLifeline;portConstraint=eastwest;newEdgeStyle={&quot;curved&quot;:0,&quot;rounded&quot;:0};" vertex="1" parent="1">
          <mxGeometry x="1382" y="2738" width="10" height="40" as="geometry" />
        </mxCell>
        <mxCell id="-DpK-WTI--ZN_Ye6T3L2-178" value="generate token" style="html=1;align=left;spacingLeft=2;endArrow=block;rounded=0;edgeStyle=orthogonalEdgeStyle;curved=0;rounded=0;" edge="1" parent="1" target="-DpK-WTI--ZN_Ye6T3L2-177">
          <mxGeometry relative="1" as="geometry">
            <mxPoint x="1387" y="2718" as="sourcePoint" />
            <Array as="points">
              <mxPoint x="1417" y="2748" />
            </Array>
          </mxGeometry>
        </mxCell>
        <mxCell id="-DpK-WTI--ZN_Ye6T3L2-179" value="return token or exception" style="html=1;verticalAlign=bottom;endArrow=open;dashed=1;endSize=8;curved=0;rounded=0;" edge="1" parent="1">
          <mxGeometry y="-8" relative="1" as="geometry">
            <mxPoint x="1170" y="2778" as="targetPoint" />
            <mxPoint x="1370" y="2778" as="sourcePoint" />
            <mxPoint as="offset" />
          </mxGeometry>
        </mxCell>
        <mxCell id="-DpK-WTI--ZN_Ye6T3L2-180" value="return token or exception" style="html=1;verticalAlign=bottom;endArrow=open;dashed=1;endSize=8;curved=0;rounded=0;" edge="1" parent="1">
          <mxGeometry y="-8" relative="1" as="geometry">
            <mxPoint x="100" y="2800" as="targetPoint" />
            <mxPoint x="1154" y="2800" as="sourcePoint" />
            <mxPoint as="offset" />
          </mxGeometry>
        </mxCell>
        <mxCell id="-DpK-WTI--ZN_Ye6T3L2-181" value="" style="html=1;points=[[0,0,0,0,5],[0,1,0,0,-5],[1,0,0,0,5],[1,1,0,0,-5]];perimeter=orthogonalPerimeter;outlineConnect=0;targetShapes=umlLifeline;portConstraint=eastwest;newEdgeStyle={&quot;curved&quot;:0,&quot;rounded&quot;:0};" vertex="1" parent="1">
          <mxGeometry x="296" y="2898" width="10" height="75" as="geometry" />
        </mxCell>
        <mxCell id="-DpK-WTI--ZN_Ye6T3L2-182" value="" style="html=1;points=[[0,0,0,0,5],[0,1,0,0,-5],[1,0,0,0,5],[1,1,0,0,-5]];perimeter=orthogonalPerimeter;outlineConnect=0;targetShapes=umlLifeline;portConstraint=eastwest;newEdgeStyle={&quot;curved&quot;:0,&quot;rounded&quot;:0};" vertex="1" parent="1">
          <mxGeometry x="96" y="2870" width="10" height="400" as="geometry" />
        </mxCell>
        <mxCell id="-DpK-WTI--ZN_Ye6T3L2-183" value="if exists errors&lt;div&gt;&amp;nbsp;when created token&lt;/div&gt;" style="html=1;align=left;spacingLeft=2;endArrow=block;rounded=0;edgeStyle=orthogonalEdgeStyle;curved=0;rounded=0;" edge="1" parent="1" target="-DpK-WTI--ZN_Ye6T3L2-182">
          <mxGeometry relative="1" as="geometry">
            <mxPoint x="101" y="2851" as="sourcePoint" />
            <Array as="points">
              <mxPoint x="127" y="2880" />
            </Array>
          </mxGeometry>
        </mxCell>
        <mxCell id="-DpK-WTI--ZN_Ye6T3L2-184" value="create errors&amp;nbsp;&amp;nbsp;" style="html=1;verticalAlign=bottom;endArrow=block;curved=0;rounded=0;" edge="1" parent="1">
          <mxGeometry x="0.0526" y="4" relative="1" as="geometry">
            <mxPoint x="111" y="2902" as="sourcePoint" />
            <mxPoint x="293" y="2902" as="targetPoint" />
            <mxPoint as="offset" />
          </mxGeometry>
        </mxCell>
        <mxCell id="-DpK-WTI--ZN_Ye6T3L2-185" value="return http 401 Unauthorized error" style="html=1;verticalAlign=bottom;endArrow=open;dashed=1;endSize=8;curved=0;rounded=0;" edge="1" parent="1">
          <mxGeometry x="0.0048" relative="1" as="geometry">
            <mxPoint x="111" y="2968" as="targetPoint" />
            <mxPoint x="291" y="2968" as="sourcePoint" />
            <mxPoint as="offset" />
          </mxGeometry>
        </mxCell>
        <mxCell id="-DpK-WTI--ZN_Ye6T3L2-186" value="http 401 Unauthorized error &#xa;code : 1050 - user unauthorized" style="verticalAlign=bottom;startArrow=oval;endArrow=block;startSize=8;edgeStyle=elbowEdgeStyle;elbow=vertical;curved=0;rounded=0;align=center;" edge="1" parent="1">
          <mxGeometry x="-0.1106" relative="1" as="geometry">
            <mxPoint x="82" y="2980" as="sourcePoint" />
            <mxPoint x="-148" y="2980" as="targetPoint" />
            <Array as="points">
              <mxPoint x="-138" y="2980" />
            </Array>
            <mxPoint as="offset" />
          </mxGeometry>
        </mxCell>
        <mxCell id="-DpK-WTI--ZN_Ye6T3L2-189" value="" style="html=1;points=[[0,0,0,0,5],[0,1,0,0,-5],[1,0,0,0,5],[1,1,0,0,-5]];perimeter=orthogonalPerimeter;outlineConnect=0;targetShapes=umlLifeline;portConstraint=eastwest;newEdgeStyle={&quot;curved&quot;:0,&quot;rounded&quot;:0};" vertex="1" parent="1">
          <mxGeometry x="295" y="3058" width="10" height="75" as="geometry" />
        </mxCell>
        <mxCell id="-DpK-WTI--ZN_Ye6T3L2-190" value="else&amp;nbsp;" style="html=1;align=left;spacingLeft=2;endArrow=block;rounded=0;edgeStyle=orthogonalEdgeStyle;curved=0;rounded=0;" edge="1" parent="1">
          <mxGeometry relative="1" as="geometry">
            <mxPoint x="107" y="3011" as="sourcePoint" />
            <Array as="points">
              <mxPoint x="133" y="3040" />
            </Array>
            <mxPoint x="112" y="3040" as="targetPoint" />
          </mxGeometry>
        </mxCell>
        <mxCell id="-DpK-WTI--ZN_Ye6T3L2-191" value="create created status&amp;nbsp;" style="html=1;verticalAlign=bottom;endArrow=block;curved=0;rounded=0;" edge="1" parent="1">
          <mxGeometry x="0.0511" y="4" relative="1" as="geometry">
            <mxPoint x="108" y="3062" as="sourcePoint" />
            <mxPoint x="290" y="3062" as="targetPoint" />
            <mxPoint as="offset" />
          </mxGeometry>
        </mxCell>
        <mxCell id="-DpK-WTI--ZN_Ye6T3L2-192" value="return http 201 created successful&amp;nbsp;" style="html=1;verticalAlign=bottom;endArrow=open;dashed=1;endSize=8;curved=0;rounded=0;" edge="1" parent="1">
          <mxGeometry x="0.0048" relative="1" as="geometry">
            <mxPoint x="107" y="3128" as="targetPoint" />
            <mxPoint x="287" y="3128" as="sourcePoint" />
            <mxPoint as="offset" />
          </mxGeometry>
        </mxCell>
        <mxCell id="-DpK-WTI--ZN_Ye6T3L2-193" value="http 201 created successful status &#xa;return user data" style="verticalAlign=bottom;startArrow=oval;endArrow=block;startSize=8;edgeStyle=elbowEdgeStyle;elbow=vertical;curved=0;rounded=0;align=center;" edge="1" parent="1">
          <mxGeometry x="-0.1106" relative="1" as="geometry">
            <mxPoint x="88" y="3140" as="sourcePoint" />
            <mxPoint x="-142" y="3140" as="targetPoint" />
            <Array as="points">
              <mxPoint x="-132" y="3140" />
            </Array>
            <mxPoint as="offset" />
          </mxGeometry>
        </mxCell>
        <mxCell id="-DpK-WTI--ZN_Ye6T3L2-194" value="&lt;p style=&quot;margin: 0px; font-variant-numeric: normal; font-variant-east-asian: normal; font-variant-alternates: normal; font-size-adjust: none; font-kerning: auto; font-optical-sizing: auto; font-feature-settings: normal; font-variation-settings: normal; font-variant-position: normal; font-stretch: normal; font-size: 13px; line-height: normal; font-family: &amp;quot;Helvetica Neue&amp;quot;; text-align: start;&quot; class=&quot;p1&quot;&gt;Some classes were omitted&lt;/p&gt;&lt;p style=&quot;margin: 0px; font-variant-numeric: normal; font-variant-east-asian: normal; font-variant-alternates: normal; font-size-adjust: none; font-kerning: auto; font-optical-sizing: auto; font-feature-settings: normal; font-variation-settings: normal; font-variant-position: normal; font-stretch: normal; font-size: 13px; line-height: normal; font-family: &amp;quot;Helvetica Neue&amp;quot;; text-align: start;&quot; class=&quot;p1&quot;&gt;&amp;nbsp;for simplicity of the diagram&lt;/p&gt;" style="shape=note2;boundedLbl=1;whiteSpace=wrap;html=1;size=25;verticalAlign=top;align=center;" vertex="1" parent="1">
          <mxGeometry x="-470" y="90" width="240" height="100" as="geometry" />
        </mxCell>
        <mxCell id="-DpK-WTI--ZN_Ye6T3L2-199" value="http 409 conflict error &#xa;code 1010:  error user domain validations" style="verticalAlign=bottom;startArrow=oval;endArrow=block;startSize=8;edgeStyle=elbowEdgeStyle;elbow=vertical;curved=0;rounded=0;align=center;" edge="1" parent="1">
          <mxGeometry x="-0.113" relative="1" as="geometry">
            <mxPoint x="80" y="164" as="sourcePoint" />
            <mxPoint x="-150" y="164" as="targetPoint" />
            <Array as="points">
              <mxPoint x="-140" y="164" />
            </Array>
            <mxPoint as="offset" />
          </mxGeometry>
        </mxCell>
      </root>
    </mxGraphModel>
  </diagram>
</mxfile>
